<?xml version="1.0"?>
<svg xmlns="http://www.w3.org/2000/svg" xmlns:xlink="http://www.w3.org/1999/xlink" xmlns:svgjs="http://svgjs.com/svgjs" version="1.1" width="512" height="512" x="0" y="0" viewBox="0 0 512.00002 512" style="enable-background:new 0 0 512 512" xml:space="preserve" class=""><g><path xmlns="http://www.w3.org/2000/svg" d="m494.535156 0h-477.070312c-9.628906 0-17.464844 7.835938-17.464844 17.464844v276.453125c0 9.628906 7.835938 17.460937 17.464844 17.460937h477.070312c9.628906 0 17.464844-7.832031 17.464844-17.460937v-276.453125c0-9.628906-7.835938-17.464844-17.464844-17.464844zm-464.503906 43.027344 143.507812 95.382812-143.507812 124.921875zm225.96875 114.128906-191.265625-127.125h382.53125zm-56.523438-1.511719 46.855469 31.144531c2.9375 1.953126 6.300781 2.929688 9.667969 2.929688 3.363281 0 6.730469-.980469 9.667969-2.929688l46.855469-31.144531 144.402343 125.703125h-401.851562zm138.984376-17.238281 143.507812-95.382812v220.308593zm0 0" fill="#ffffff" data-original="#000000" style=""/></g></svg>
